<svg xmlns="http://www.w3.org/2000/svg" width="735.268" height="511.805" viewBox="0 0 735.268 511.805">
  <g id="undraw_snow_games_ohkc-2" transform="translate(0 -28.62)">
    <path id="패스_1" data-name="패스 1" d="M838.417,653.806,834,669.466h18.113c-2.587-6.187-3.249-12.062-1.006-17.466Z" transform="translate(-314.994 -251.116)" fill="#ffb8b8"/>
    <path id="패스_2" data-name="패스 2" d="M767.145,829.743c0,.245-.007.5-.022.742H32.248c-.015-.245-.022-.5-.022-.742,0-37.258,164.518-67.457,367.46-67.457S767.145,792.485,767.145,829.743Z" transform="translate(-31.877 -290.06)" fill="#3f3d56"/>
    <circle id="타원_1" data-name="타원 1" cx="40.829" cy="40.829" r="40.829" transform="translate(574.18 423.878)" fill="#d0cde1"/>
    <ellipse id="타원_2" data-name="타원 2" cx="27.467" cy="11.135" rx="27.467" ry="11.135" transform="translate(589.769 423.878)" fill="#f50057"/>
    <circle id="타원_3" data-name="타원 3" cx="25.982" cy="25.982" r="25.982" transform="translate(592.738 383.791)" fill="#d0cde1"/>
    <circle id="타원_4" data-name="타원 4" cx="3.974" cy="3.974" r="3.974" transform="translate(606.843 396.891)" fill="#575a89"/>
    <circle id="타원_5" data-name="타원 5" cx="3.974" cy="3.974" r="3.974" transform="translate(620.422 396.891)" fill="#575a89"/>
    <path id="패스_3" data-name="패스 3" d="M984.11,660l-1.085,13.016a.485.485,0,0,0,.949.176L987.822,660Z" transform="translate(-367.617 -253.942)" fill="#ff6584"/>
    <path id="패스_4" data-name="패스 4" d="M900.06,784.692l-4.724,4.724L869.244,758.6l.633-4.092Z" transform="translate(-306.942 -266.427)" fill="#575a89"/>
    <path id="패스_5" data-name="패스 5" d="M871.127,778.047v2.97l-23.755-1.485-2.227-1.485Z" transform="translate(-298.432 -274.739)" fill="#575a89"/>
    <ellipse id="타원_6" data-name="타원 6" cx="6.681" cy="7.423" rx="6.681" ry="7.423" transform="translate(584.573 445.406)" fill="#d0cde1"/>
    <path id="패스_6" data-name="패스 6" d="M1000.626,682.559l4.724,4.724,26.092-30.816-.632-4.092Z" transform="translate(-353.334 -230.362)" fill="#575a89"/>
    <path id="패스_7" data-name="패스 7" d="M1021.87,681.652v2.969l23.755-1.485,2.227-1.485Z" transform="translate(-360.836 -240.7)" fill="#575a89"/>
    <ellipse id="타원_7" data-name="타원 7" cx="6.681" cy="7.423" rx="6.681" ry="7.423" transform="translate(642.475 445.406)" fill="#d0cde1"/>
    <circle id="타원_8" data-name="타원 8" cx="2.969" cy="2.969" r="2.969" transform="translate(614.266 452.829)" fill="#575a89"/>
    <circle id="타원_9" data-name="타원 9" cx="2.969" cy="2.969" r="2.969" transform="translate(614.266 462.48)" fill="#575a89"/>
    <circle id="타원_10" data-name="타원 10" cx="2.969" cy="2.969" r="2.969" transform="translate(614.266 472.13)" fill="#575a89"/>
    <path id="패스_8" data-name="패스 8" d="M576.535,747.137a15.577,15.577,0,0,0-27.757-10.422A15.612,15.612,0,0,0,542,730.982a15.587,15.587,0,0,0-26.611-14.457,36.329,36.329,0,0,0-12.957-8.265,15.581,15.581,0,0,0-29.89-8.134,15.569,15.569,0,0,0-23.352,18.547,15.6,15.6,0,0,0-4.993,3,15.575,15.575,0,0,0-19.228,7.479,15.6,15.6,0,0,0-5.038-3.714c.046-.381.094-.762.112-1.152a15.589,15.589,0,1,0-30.987,1.592,15.432,15.432,0,0,0-11.294,16.477c-17.494.513-34.366,1.333-50.489,2.442a36.38,36.38,0,0,0-66.968-7.336,15.582,15.582,0,0,0-23.953,18q-1.059.19-2.108.383c.025-.259.063-.513.075-.776a15.589,15.589,0,1,0-31.145-1.442c-.007.162,0,.319,0,.48a9.642,9.642,0,0,0-13.055,8.577C190.069,763.9,576.506,747.743,576.535,747.137Z" transform="translate(-87.634 -264.62)" fill="#d0cde1"/>
    <path id="패스_9" data-name="패스 9" d="M40.225,418.657l.065-.2c-.009.03-.021.058-.03.088Z" transform="translate(-34.702 -168.648)" fill="#2f2e41"/>
    <path id="패스_10" data-name="패스 10" d="M551.447,508.066,606.431,426.3l-54.871,90.563.115,9.2q-6.021.046-11.925-.2l2.727-118.27-.075-.912.1-.176.261-11.176-60.214-87.423,60.143,79.059.213,2.362,2.06-89.357-52.008-90.638,52.157,74.94-.544-185.126V98.53l.018.606,3.452,145.9,47.4-59.266L548.2,257.609l1.034,79.928,43.617-78.007L549.39,349.288l.576,44.444L613.4,285.069,550.159,409.237Z" transform="translate(-190.892 -55.678)" fill="#3f3d56"/>
    <path id="패스_13" data-name="패스 13" d="M879,641.283l6.682-6.681,3.711,3.712-5.938,9.65Z" transform="translate(-310.386 -224.087)" fill="#ffb8b8"/>
    <path id="패스_14" data-name="패스 14" d="M915.275,660.082l4.454-2.969s11.135-14.847,15.589-7.424-8.166,14.847-8.166,14.847l-3.712,4.454Z" transform="translate(-343.694 -249.566)" fill="#ff6584"/>
    <path id="패스_15" data-name="패스 15" d="M915.275,660.082l4.454-2.969s11.135-14.847,15.589-7.424-8.166,14.847-8.166,14.847l-3.712,4.454Z" transform="translate(-343.694 -249.566)" opacity="0.15"/>
    <path id="패스_16" data-name="패스 16" d="M821.62,651.138h23.755l14.1-9.651,8.166,11.135-19.3,14.847L828.3,671.181Z" transform="translate(-290.125 -226.518)" fill="#f50057"/>
    <path id="패스_17" data-name="패스 17" d="M821.62,651.138h23.755l14.1-9.651,8.166,11.135-19.3,14.847L828.3,671.181Z" transform="translate(-290.125 -226.518)" opacity="0.15"/>
    <path id="패스_18" data-name="패스 18" d="M858.095,753.53s21.528,23.755,17.816,29.694-11.877,5.939-13.362,5.2-23.013-12.62-23.013-12.62l2.969-9.65s-4.454-10.393,0-11.135S858.095,753.53,858.095,753.53Z" transform="translate(-316.949 -286.968)" fill="#2f2e41"/>
    <path id="패스_19" data-name="패스 19" d="M830.939,768.015s-14.1-11.135-17.074-8.908-12.62,16.332-11.135,23.013,0,8.908,4.454,8.166,5.2-8.166,5.2-8.166l15.589-5.939Z" transform="translate(-303.898 -288.833)" fill="#2f2e41"/>
    <rect id="사각형_1" data-name="사각형 1" width="0.742" height="19.358" transform="translate(531.298 481.726) rotate(-57.529)" opacity="0.15"/>
    <circle id="타원_41" data-name="타원 41" cx="11.135" cy="11.135" r="11.135" transform="translate(520.36 384.905)" fill="#ffb8b8"/>
    <path id="패스_20" data-name="패스 20" d="M828.106,664.02s-2.969,7.423-2.969,25.24-10.393,25.982-2.227,34.89,40.354,3.252,40.354,3.252-.347.275-.267-.283c.742-5.2-7.423-59.387-10.393-60.13S828.106,664.02,828.106,664.02Z" transform="translate(-309.973 -255.361)" fill="#f50057"/>
    <path id="패스_21" data-name="패스 21" d="M879,622.348l6.682-6.681,3.711,3.712-5.938,9.65Z" transform="translate(-310.386 -217.4)" fill="#ffb8b8"/>
    <path id="패스_22" data-name="패스 22" d="M813.986,640.482c-2.459.36-5.173.635-6.914,1.386-2.284.985-2.151,2.462-1.531,3.752s1.59,2.633.555,3.885a15.394,15.394,0,0,1-2.793,2.021c-.961.669-1.668,1.456-1.1,2.187.593.764,2.41,1.281,3.686,1.913,2.758,1.366,2.8,3.428.091,4.809,2.329-1.4,6.772-2.026,10.847-2.623s8.454-1.389,10.163-2.913c1.743-1.554.122-3.364,1.027-5.018.773-1.414,3.3-2.579,5.316-3.8s3.607-2.734,2.28-4.088c-.979-1-3.486-1.87-3.009-2.921.295-.65,1.674-1.134,2.665-1.676s1.543-1.352.3-1.81c-4.534.818-9.149,1.591-13.62,2.456C819.187,638.573,817.553,640.482,813.986,640.482Z" transform="translate(-303.695 -245.319)" fill="#2f2e41"/>
    <path id="패스_23" data-name="패스 23" d="M821.62,632.2h23.755l14.1-9.65,8.166,11.135-19.3,14.847L828.3,652.246Z" transform="translate(-290.125 -219.832)" fill="#f50057"/>
    <path id="패스_24" data-name="패스 24" d="M939.629,645.753s20.786-10.393,20.786-14.1S952.249,616.8,937.4,616.8c0,0-3.712-6.681-8.166-1.485s2.227,8.908,2.227,8.908-8.166,13.362,3.712,21.528Z" transform="translate(-348.083 -237.464)" fill="#f50057"/>
    <circle id="타원_42" data-name="타원 42" cx="11.877" cy="11.877" r="11.877" transform="translate(397.502 262.789)" fill="#ff6584"/>
    <path id="패스_25" data-name="패스 25" d="M618.849,421.847l-3.4-4.539.594-.445,2.924,3.9,5.137-4.4,5.177,4.437,4.473-4.473,4.716,4.716-.525.525-4.192-4.192-4.434,4.434-5.216-4.471Z" transform="translate(-217.324 -147.011)" fill="#575a89"/>
    <path id="패스_26" data-name="패스 26" d="M617.73,430.995l-3.368-4.5.518-.387,2.954,3.945,5.145-4.409,5.18,4.44,4.471-4.471,4.684,4.683-.458.457-4.226-4.225-4.436,4.438-5.214-4.469Z" transform="translate(-216.939 -150.289)" fill="#575a89"/>
    <rect id="사각형_2" data-name="사각형 2" width="0.742" height="8.908" transform="translate(408.637 254.252)" fill="#575a89"/>
    <circle id="타원_43" data-name="타원 43" cx="11.877" cy="11.877" r="11.877" transform="translate(375.232 165.542)" fill="#ff6584"/>
    <path id="패스_27" data-name="패스 27" d="M584.422,271.516l-3.4-4.54.594-.445,2.924,3.9,5.137-4.4,5.177,4.438L599.329,266l4.716,4.716-.525.525-4.192-4.191-4.434,4.434-5.216-4.471Z" transform="translate(-205.167 -93.927)" fill="#575a89"/>
    <path id="패스_28" data-name="패스 28" d="M583.3,280.663l-3.368-4.5.518-.388,2.954,3.946,5.145-4.41,5.179,4.44,4.471-4.471,4.684,4.683-.457.457L598.2,276.2l-4.436,4.438-5.213-4.469Z" transform="translate(-204.783 -97.206)" fill="#575a89"/>
    <rect id="사각형_3" data-name="사각형 3" width="0.742" height="8.908" transform="translate(386.367 157.006)" fill="#575a89"/>
    <circle id="타원_44" data-name="타원 44" cx="11.877" cy="11.877" r="11.877" transform="translate(283.924 266.501)" fill="#ff6584"/>
    <path id="패스_29" data-name="패스 29" d="M443.272,427.584l-3.4-4.54.594-.445,2.924,3.9,5.137-4.4,5.176,4.438,4.474-4.474,4.716,4.717-.525.525-4.192-4.192-4.434,4.434-5.216-4.471Z" transform="translate(-155.325 -149.037)" fill="#575a89"/>
    <path id="패스_30" data-name="패스 30" d="M442.153,436.732l-3.368-4.5.518-.388,2.954,3.945,5.145-4.409,5.18,4.44,4.471-4.471,4.682,4.683-.457.457-4.225-4.225-4.437,4.436-5.214-4.468Z" transform="translate(-154.941 -152.315)" fill="#575a89"/>
    <rect id="사각형_4" data-name="사각형 4" width="0.742" height="8.908" transform="translate(295.059 257.964)" fill="#575a89"/>
    <path id="패스_31" data-name="패스 31" d="M548.949,75.887,538.833,68.3l-10.345,7.275L532.582,63.6l-10.116-7.591,12.645.2L539.2,44.243l3.722,12.087,12.645.2L545.227,63.8Z" transform="translate(-184.49 -15.623)" fill="#f50057"/>
    <path id="패스_32" data-name="패스 32" d="M577.653,735.7A15.577,15.577,0,0,0,549.9,725.274a15.612,15.612,0,0,0-6.774-5.733,15.587,15.587,0,0,0-26.61-14.457,36.328,36.328,0,0,0-12.956-8.265,15.581,15.581,0,0,0-29.89-8.134,15.569,15.569,0,0,0-23.352,18.547,15.6,15.6,0,0,0-4.993,3,15.575,15.575,0,0,0-19.228,7.479A15.6,15.6,0,0,0,421.054,714c.046-.382.094-.763.112-1.153a15.589,15.589,0,1,0-30.986,1.592,15.432,15.432,0,0,0-11.294,16.477c-17.494.513-34.366,1.333-50.489,2.441a36.38,36.38,0,0,0-66.968-7.336,15.582,15.582,0,0,0-23.953,18q-1.059.19-2.108.383c.025-.259.063-.513.075-.776a15.589,15.589,0,1,0-31.145-1.442c-.007.162,0,.319,0,.48a9.642,9.642,0,0,0-13.055,8.577C191.187,752.464,577.624,736.3,577.653,735.7Z" transform="translate(-88.029 -260.58)" fill="#d0cde1"/>
    <path id="패스_33" data-name="패스 33" d="M201.984,867.427a16.877,16.877,0,0,1,1.752.178h-4.907a14.79,14.79,0,0,1,3.155-.178Z" transform="translate(-90.707 -327.18)" fill="#d0cde1"/>
    <path id="패스_34" data-name="패스 34" d="M280.269,858.926H219.887a36.362,36.362,0,0,1,60.382,0Z" transform="translate(-98.143 -318.501)" fill="#d0cde1"/>
    <path id="패스_35" data-name="패스 35" d="M92.069,858.926H31.687a36.362,36.362,0,0,1,60.382,0Z" transform="translate(-31.687 -318.501)" fill="#d0cde1"/>
    <path id="패스_36" data-name="패스 36" d="M147.152,858.926H86.77a36.362,36.362,0,0,1,60.382,0Z" transform="translate(-51.137 -318.501)" fill="#d0cde1"/>
    <path id="패스_37" data-name="패스 37" d="M406.5,806.138H346.119a36.362,36.362,0,0,1,60.382,0Z" transform="translate(-142.717 -299.861)" fill="#d0cde1"/>
    <path id="패스_38" data-name="패스 38" d="M780.607,832.532H720.224a36.362,36.362,0,0,1,60.382,0Z" transform="translate(-274.819 -309.181)" fill="#d0cde1"/>
    <path id="패스_39" data-name="패스 39" d="M563.618,840.037a15.805,15.805,0,0,1,5.018,3.519H400.651a15.641,15.641,0,0,1,10.022-8.626,15.227,15.227,0,0,1-.156-3.036,15.587,15.587,0,1,1,31.141,1.448c-.015.386-.059.765-.111,1.151a15.545,15.545,0,0,1,5.041,3.712,15.58,15.58,0,0,1,19.227-7.475,15.546,15.546,0,0,1,5-3,15.4,15.4,0,0,1-1.091-6.466,15.572,15.572,0,0,1,24.445-12.085,15.583,15.583,0,0,1,30.065,6.436,16.087,16.087,0,0,1-.178,1.7A36.363,36.363,0,0,1,537,825.576a15.584,15.584,0,0,1,26.613,14.461Z" transform="translate(-161.973 -303.13)" fill="#d0cde1"/>
    <path id="패스_40" data-name="패스 40" d="M894.022,862.553H865.368a15.584,15.584,0,0,1,28.654,0Z" transform="translate(-326.071 -322.128)" fill="#d0cde1"/>
    <path id="패스_41" data-name="패스 41" d="M1046.089,852.876H955.62a15.037,15.037,0,0,1-.661-5.219A15.572,15.572,0,0,1,979.4,835.572a15.583,15.583,0,0,1,30.065,6.436,16.074,16.074,0,0,1-.178,1.7,36.366,36.366,0,0,1,12.954,8.262,15.589,15.589,0,0,1,23.844.906Z" transform="translate(-357.7 -312.45)" fill="#d0cde1"/>
    <path id="패스_42" data-name="패스 42" d="M686.465,865.706H666.392a15.54,15.54,0,0,1,20.073,0Z" transform="translate(-255.81 -325.281)" fill="#d0cde1"/>
    <circle id="타원_45" data-name="타원 45" cx="13.226" cy="13.226" r="13.226" transform="translate(152.422 298.657)" fill="#a0616a"/>
    <path id="패스_43" data-name="패스 43" d="M284.643,488.323c4.712.3,9.085,2.481,13.171,4.846a1.706,1.706,0,0,0-2.059.406c-.545.529-.888,1.235-1.413,1.784a7.258,7.258,0,0,1-3.816,1.68l-6.421,1.429-5.956,1.325a12.109,12.109,0,0,1-4.561.419,4.119,4.119,0,0,1-3.412-2.712c-.55-2.062,3.549-5.131,5.053-6.373A13.652,13.652,0,0,1,284.643,488.323Z" transform="translate(-115.883 -193.305)" fill="#2f2e41"/>
    <path id="패스_44" data-name="패스 44" d="M272.466,500.37c2.776-3.9,7.109-6.433,11.455-8.619a1.655,1.655,0,0,0-.721,2.006c.2.77.663,1.465.889,2.229a7.146,7.146,0,0,1-.484,4.243l-2.1,6.349-1.948,5.888a11.55,11.55,0,0,1-2.039,4.172,4.238,4.238,0,0,1-4.307,1.408c-2.188-.693-2.83-5.968-3.172-7.968A13.248,13.248,0,0,1,272.466,500.37Z" transform="translate(-115.805 -194.53)" fill="#2f2e41"/>
    <path id="패스_45" data-name="패스 45" d="M376.757,489.849s.778-17.116,4.668-16.338.778,17.894.778,17.894Z" transform="translate(-153.536 -188.08)" fill="#a0616a"/>
    <path id="패스_46" data-name="패스 46" d="M356.02,526.647l-17.48,12.66-5.084,3.68-13.224-18.675,8.254-3.254,17.42-6.861,10.115-20.23,8.554,2.335C366.135,500.192,356.02,526.647,356.02,526.647Z" transform="translate(-133.576 -195.312)" fill="#575a89"/>
    <path id="패스_47" data-name="패스 47" d="M333.141,482.529s-2.334-20.229,2.334-18.672,3.89,21.007,3.89,21.007Z" transform="translate(-137.928 -184.65)" fill="#a0616a"/>
    <path id="패스_48" data-name="패스 48" d="M244.545,740.743l-4.489,11.74,12.506,3.7-.238-15.558Z" transform="translate(-84.767 -261.525)" fill="#575a89"/>
    <path id="패스_49" data-name="패스 49" d="M282.223,613.663l-12.44,51.546-11.947,32.863-15.559.238,14.138-42.235,5.51-46.771Z" transform="translate(-85.551 -215.154)" fill="#2f2e41"/>
    <path id="패스_50" data-name="패스 50" d="M267.6,786.673s-4.737,10.082-1.543,11.463,11.869,3.234,11.869,3.234l1.191-1s20.043,4.493,23.4-2.4-12.4-9.906-12.4-9.906l-7.2-6.144-8.648,4.223Z" transform="translate(-114.056 -296.994)" fill="#2f2e41"/>
    <path id="패스_51" data-name="패스 51" d="M219.236,737.522l-4.489,11.74,12.506,3.7-.238-15.559Z" transform="translate(-75.83 -260.387)" fill="#575a89"/>
    <path id="패스_52" data-name="패스 52" d="M235.715,611.51,231.123,657.1l-14.21,37.567,13.3,4.465,20.4-40,9.411-46.052Z" transform="translate(-76.595 -215.932)" fill="#2f2e41"/>
    <path id="패스_53" data-name="패스 53" d="M239.526,786.624s-7.423,8.306-4.758,10.542,10.447,6.5,10.447,6.5l1.428-.619s17.92,10.04,23.106,4.4-9.044-13.039-9.044-13.039l-5.141-7.947-9.494,1.572Z" transform="translate(-103.194 -298.594)" fill="#2f2e41"/>
    <path id="패스_54" data-name="패스 54" d="M338.54,555.514l-5.084,3.68-13.224-18.675,3.68-.654c.2.336,3.392.252,3.6.6C331.372,546.786,336.937,552.128,338.54,555.514Z" transform="translate(-133.576 -211.52)" opacity="0.15"/>
    <path id="패스_55" data-name="패스 55" d="M319.939,611.427c-.9-.583-1.11-6.672-2.4-7.2-.655-.27-2.258,5-3,4.741-19.29-6.674-62.412,7.633-69.634-8.343-4.855-10.742,25.981-31.569,25.981-39.349a22.861,22.861,0,0,0-1.069-5.829,134.163,134.163,0,0,0-6.417-16.526c-1.891-4.19-3.4-7.21-3.4-7.21s22.685-6.741,29.955-9.346c.924-.33,1.6-.594,1.945-.768,1.393-.7,4.97,4.226,8.638,10.223a194.357,194.357,0,0,1,10.031,18.567C312.118,554.273,333.164,619.987,319.939,611.427Z" transform="translate(-106.793 -205.045)" fill="#575a89"/>
    <path id="패스_56" data-name="패스 56" d="M308.108,530.376c-8.422,10.139-17.486,22.259-25.29,24.552a12.958,12.958,0,0,1-2.623.5,134.171,134.171,0,0,0-6.417-16.526,10.613,10.613,0,0,1,3.176-2.383l21.1-10.385,2.275-3.788c.924-.33,1.6-.594,1.945-.768C303.665,520.885,304.44,524.379,308.108,530.376Z" transform="translate(-117.172 -205.033)" opacity="0.15"/>
    <path id="패스_57" data-name="패스 57" d="M275.41,522.1a10.529,10.529,0,0,0-4.129,15.437c1.937,2.712,5.037,4.427,10,2.968,13.226-3.89,38.123-31.9,38.123-40.457v-7.78l-9.336-3.112L296.51,511.717Z" transform="translate(-115.63 -193.615)" fill="#575a89"/>
    <ellipse id="타원_46" data-name="타원 46" cx="1.201" cy="2.401" rx="1.201" ry="2.401" transform="matrix(0.814, -0.581, 0.581, 0.814, 190.965, 328.888)" fill="#2f2e41"/>
    <ellipse id="타원_47" data-name="타원 47" cx="1.201" cy="2.401" rx="1.201" ry="2.401" transform="matrix(0.814, -0.581, 0.581, 0.814, 194.566, 335.491)" fill="#2f2e41"/>
    <ellipse id="타원_48" data-name="타원 48" cx="1.201" cy="2.401" rx="1.201" ry="2.401" transform="matrix(0.814, -0.581, 0.581, 0.814, 197.568, 342.694)" fill="#2f2e41"/>
    <ellipse id="타원_49" data-name="타원 49" cx="1.201" cy="2.401" rx="1.201" ry="2.401" transform="translate(199.829 349.269) rotate(-18.867)" fill="#2f2e41"/>
    <ellipse id="타원_50" data-name="타원 50" cx="1.201" cy="2.401" rx="1.201" ry="2.401" transform="translate(202.23 356.473) rotate(-18.867)" fill="#2f2e41"/>
    <ellipse id="타원_51" data-name="타원 51" cx="1.201" cy="2.401" rx="1.201" ry="2.401" transform="translate(204.631 363.076) rotate(-18.867)" fill="#2f2e41"/>
    <ellipse id="타원_52" data-name="타원 52" cx="1.201" cy="2.401" rx="1.201" ry="2.401" transform="translate(205.832 370.279) rotate(-18.867)" fill="#2f2e41"/>
    <ellipse id="타원_53" data-name="타원 53" cx="1.201" cy="2.401" rx="1.201" ry="2.401" transform="translate(207.033 377.483) rotate(-18.867)" fill="#2f2e41"/>
    <ellipse id="타원_54" data-name="타원 54" cx="1.201" cy="2.401" rx="1.201" ry="2.401" transform="translate(208.233 385.286) rotate(-18.867)" fill="#2f2e41"/>
    <ellipse id="타원_55" data-name="타원 55" cx="1.201" cy="2.401" rx="1.201" ry="2.401" transform="translate(208.834 393.09) rotate(-18.867)" fill="#2f2e41"/>
    <path id="패스_58" data-name="패스 58" d="M263.078,508.81s17.771-20.717,16.081-24.735-15.6-12.356-31.676-5.6c0,0-7.061-5.543-9.517,2.111s6.468,8.63,6.468,8.63-2.756,18.185,13.822,21.617Z" transform="translate(-104.376 -188.941)" fill="#f50057"/>
    <circle id="타원_56" data-name="타원 56" cx="11.877" cy="11.877" r="11.877" transform="translate(434.619 472.13)" fill="#ff6584"/>
    <path id="패스_59" data-name="패스 59" d="M676.227,745.459l-3.4-4.54.594-.445,2.924,3.9,5.137-4.4,5.177,4.438,4.473-4.474,4.716,4.717-.525.525-4.192-4.192-4.434,4.434-5.216-4.471Z" transform="translate(-237.585 -261.283)" fill="#575a89"/>
    <path id="패스_60" data-name="패스 60" d="M675.108,754.607l-3.368-4.5.518-.388,2.954,3.946,5.145-4.409,5.18,4.44,4.471-4.471,4.682,4.683-.457.457-4.225-4.225-4.437,4.436-5.214-4.468Z" transform="translate(-237.2 -264.561)" fill="#575a89"/>
    <rect id="사각형_5" data-name="사각형 5" width="0.742" height="8.908" transform="translate(445.755 463.593)" fill="#575a89"/>
    <circle id="타원_57" data-name="타원 57" cx="11.877" cy="11.877" r="11.877" transform="translate(394.89 471.712)" fill="#f50057"/>
    <path id="패스_61" data-name="패스 61" d="M615.225,746.81l-5.026-2.628.344-.658,4.323,2.261L617.6,739.6l6.585,1.769,2.1-5.966,6.29,2.219-.247.7-5.59-1.972-2.087,5.914-6.634-1.783Z" transform="translate(-215.469 -259.68)" fill="#575a89"/>
    <path id="패스_62" data-name="패스 62" d="M617.847,754.94l-4.674-1.995.254-.6,4.132,1.764,3.023-5.612,6.306,1.176,2.39-5.362,5.92,1.571-.165.625-5.389-1.429-2.373,5.324-6.343-1.182Z" transform="translate(-216.52 -262.828)" fill="#575a89"/>
    <rect id="사각형_6" data-name="사각형 6" width="0.742" height="8.908" transform="matrix(0.902, -0.431, 0.431, 0.902, 397.29, 465.494)" fill="#575a89"/>
    <circle id="타원_58" data-name="타원 58" cx="11.877" cy="11.877" r="11.877" transform="translate(288.194 465.023)" fill="#f50057"/>
    <path id="패스_63" data-name="패스 63" d="M451.41,730.355l-1.695-5.412.708-.222,1.458,4.654,6.309-2.442,3.405,5.907,5.707-2.73,2.879,6.017-.67.32-2.558-5.348-5.657,2.706-3.431-5.951Z" transform="translate(-158.8 -255.909)" fill="#575a89"/>
    <path id="패스_64" data-name="패스 64" d="M465.442,744.711l-2.579-5.391-5.661,2.707-3.429-5.948-6.446,2.5-1.679-5.363.617-.193,1.472,4.7,6.319-2.446,3.406,5.91,5.7-2.728,2.857,5.974Z" transform="translate(-157.365 -258.838)" fill="#575a89"/>
    <rect id="사각형_7" data-name="사각형 7" width="8.908" height="0.742" transform="translate(303.198 465.801) rotate(-70.562)" fill="#575a89"/>
    <ellipse id="타원_59" data-name="타원 59" cx="1.104" cy="3.712" rx="1.104" ry="3.712" transform="translate(549.112 447.053) rotate(-9.004)" fill="#575a89"/>
    <ellipse id="타원_60" data-name="타원 60" cx="1.104" cy="3.712" rx="1.104" ry="3.712" transform="translate(547.627 436.661) rotate(-9.004)" fill="#575a89"/>
    <ellipse id="타원_61" data-name="타원 61" cx="1.104" cy="3.712" rx="1.104" ry="3.712" transform="translate(550.596 456.704) rotate(-9.004)" fill="#575a89"/>
    <ellipse id="타원_62" data-name="타원 62" cx="1.104" cy="3.712" rx="1.104" ry="3.712" transform="translate(551.569 465.511) rotate(-5.343)" fill="#575a89"/>
    <ellipse id="타원_63" data-name="타원 63" cx="3.712" cy="1.104" rx="3.712" ry="1.104" transform="translate(565.939 412.302) rotate(-45)" fill="#575a89"/>
    <path id="패스_65" data-name="패스 65" d="M859.722,634.711c-1.569-.178-2.91,1.046-4.011,2.178a24.315,24.315,0,0,1-3.008,2.765,12.356,12.356,0,0,1-11.3,1.607c.093.034,3.591-4.6,3.976-5.025a48.7,48.7,0,0,1,4.691-4.532c1.245-1.051,2.957-2.851,4.739-2.071C856.681,630.454,858.39,633.2,859.722,634.711Z" transform="translate(-317.608 -243.151)" fill="#2f2e41"/>
    <path id="패스_66" data-name="패스 66" d="M829.585,634.851s20.786-10.393,20.786-14.1S842.2,605.9,827.358,605.9c0,0-3.712-6.681-8.166-1.485s2.227,8.908,2.227,8.908-8.166,13.362,3.712,21.528Z" transform="translate(-309.225 -233.614)" fill="#575a89"/>
    <path id="패스_67" data-name="패스 67" d="M865.935,633.521c-1.569-.178-2.91,1.046-4.011,2.178a24.294,24.294,0,0,1-3.008,2.765,12.355,12.355,0,0,1-11.3,1.607c.093.034,3.591-4.6,3.976-5.025a48.7,48.7,0,0,1,4.69-4.532c1.245-1.051,2.957-2.851,4.739-2.071C862.894,629.265,864.6,632.013,865.935,633.521Z" transform="translate(-319.802 -242.731)" fill="#575a89"/>
    <path id="패스_68" data-name="패스 68" d="M935.319,630.754c-2.364-3.94-6.609-1.607-10.073,1.45-.169-1.9-.746-3.306-1.433-3.306-.82,0-1.485,1.994-1.485,4.454a12.584,12.584,0,0,0,.1,1.627c-1.621,1.758-2.7,3.2-2.7,3.2l-4.454,2.969,8.166,8.908,3.712-4.454S939.773,638.177,935.319,630.754Z" transform="translate(-343.694 -242.88)" fill="#ff6584"/>
    <circle id="타원_64" data-name="타원 64" cx="2.969" cy="2.969" r="2.969" transform="translate(505.884 365.975)" fill="#575a89"/>
    <path id="패스_69" data-name="패스 69" d="M845,729v4.852a6.792,6.792,0,1,0,13.585,0V729Z" transform="translate(-318.879 -278.306)" fill="#f50057"/>
    <path id="패스_70" data-name="패스 70" d="M845,729v4.852a6.792,6.792,0,1,0,13.585,0V729Z" transform="translate(-318.879 -278.306)" opacity="0.15"/>
  </g>
</svg>
